<svg width="545" height="500" viewBox="0 0 545 500" fill="none" xmlns="http://www.w3.org/2000/svg">
<g clip-path="url(#clip0)">
<path d="M471.787 655.735C492.363 655.735 509.59 662.931 523.945 676.842C538.301 691.712 545 708.981 545 729.128C545 749.754 537.822 767.503 523.945 781.894C509.59 796.284 492.363 803 471.787 803H74.1703C71.2992 803 68.9066 802.52 66.514 802.041C54.0725 801.081 43.0666 797.244 33.4962 790.048C16.7481 779.016 6.22073 763.665 1.91407 743.518C-2.39259 723.372 1.43555 705.143 12.92 688.354L371.33 147.744H74.1703C53.594 147.744 36.3674 140.549 22.0118 126.638C7.65629 111.768 0 94.4988 0 74.3519C0 53.7252 7.17777 36.4564 22.0118 22.0657C36.3674 7.19537 53.594 0 74.1703 0H472.265C487.099 0.479689 500.498 4.79692 512.461 12.472C529.209 23.5048 539.736 38.8549 543.086 59.0018C547.393 79.1488 544.043 97.8566 533.037 115.125L173.67 655.735H471.787Z" fill="url(#paint0_linear)"/>
</g>
<defs>
<linearGradient id="paint0_linear" x1="291.178" y1="140" x2="291.178" y2="569" gradientUnits="userSpaceOnUse">
<stop stop-color="#E3F1FF"/>
<stop offset="1" stop-color="#EBF5FF" stop-opacity="0"/>
</linearGradient>
<clipPath id="clip0">
<rect width="545" height="500" fill="white"/>
</clipPath>
</defs>
</svg>
