<svg xmlns="http://www.w3.org/2000/svg" width="444" viewBox="0 0 444 339.75" height="339.75" version="1.0"><defs><clipPath id="a"><path d="M 18 303 L 109 303 L 109 327.800781 L 18 327.800781 Z M 18 303"/></clipPath><clipPath id="b"><path d="M 18 320 L 109 320 L 109 327.800781 L 18 327.800781 Z M 18 320"/></clipPath><clipPath id="c"><path d="M 18 303 L 109 303 L 109 327.800781 L 18 327.800781 Z M 18 303"/></clipPath><clipPath id="d"><path d="M 59 303 L 107 303 L 107 327.800781 L 59 327.800781 Z M 59 303"/></clipPath></defs><path fill="#D2E4FF" d="M 411.714844 314.101562 C 438.109375 251.664062 400.054688 219.753906 391.957031 196.511719 C 383.941406 173.269531 441.429688 32.035156 294.632812 21.425781 C 225.40625 16.40625 220.871094 45.722656 191.316406 39.890625 C 166.703125 35.03125 133.503906 11.871094 110.105469 20.859375 C 76.988281 33.574219 57.878906 57.789062 60.472656 82.488281 C 62.65625 103.140625 76.582031 122.332031 73.75 142.902344 C 70.996094 163.066406 53.101562 177.480469 36.097656 188.898438 C 19.097656 200.320312 15.289062 212.304688 8.730469 231.660156 C 2.253906 250.609375 9.785156 272.070312 22.902344 287.296875 C 23.386719 287.863281 23.871094 288.429688 24.359375 288.914062 C 39.09375 305.355469 59.984375 314.34375 81.683594 314.261719 Z M 411.714844 314.101562" fill-opacity=".298"/><path fill="#C6E2FA" d="M 153.421875 215.542969 L 121.199219 215.542969 C 121.035156 215.542969 120.875 215.382812 120.875 215.21875 C 120.875 215.058594 121.035156 214.894531 121.199219 214.894531 L 153.421875 214.894531 C 153.585938 214.894531 153.746094 215.058594 153.746094 215.21875 C 153.746094 215.382812 153.585938 215.542969 153.421875 215.542969 Z M 153.421875 215.542969"/><path fill="#C6E2FA" d="M 153.421875 231.496094 L 121.199219 231.496094 C 121.035156 231.496094 120.875 231.335938 120.875 231.171875 C 120.875 231.011719 121.035156 230.851562 121.199219 230.851562 L 153.421875 230.851562 C 153.585938 230.851562 153.746094 231.011719 153.746094 231.171875 C 153.746094 231.335938 153.585938 231.496094 153.421875 231.496094 Z M 153.421875 231.496094"/><path fill="#C6E2FA" d="M 147.511719 223.5625 L 101.925781 223.5625 C 101.765625 223.5625 101.601562 223.398438 101.601562 223.238281 C 101.601562 223.074219 101.765625 222.914062 101.925781 222.914062 L 147.511719 222.914062 C 147.675781 222.914062 147.835938 223.074219 147.835938 223.238281 C 147.835938 223.398438 147.753906 223.5625 147.511719 223.5625 Z M 147.511719 223.5625"/><path fill="#C6E2FA" d="M 127.835938 215.542969 C 127.675781 215.542969 127.511719 215.382812 127.511719 215.21875 L 127.511719 208.417969 C 127.511719 208.253906 127.675781 208.09375 127.835938 208.09375 C 128 208.09375 128.160156 208.253906 128.160156 208.417969 L 128.160156 215.21875 C 128.082031 215.382812 128 215.542969 127.835938 215.542969 Z M 127.835938 215.542969"/><path fill="#C6E2FA" d="M 139.171875 223.5625 C 139.011719 223.5625 138.847656 223.398438 138.847656 223.238281 L 138.847656 215.21875 C 138.847656 215.058594 139.011719 214.894531 139.171875 214.894531 C 139.335938 214.894531 139.496094 215.058594 139.496094 215.21875 L 139.496094 223.238281 C 139.414062 223.398438 139.335938 223.5625 139.171875 223.5625 Z M 139.171875 223.5625"/><path fill="#C6E2FA" d="M 130.507812 231.253906 C 130.347656 231.253906 130.183594 231.09375 130.183594 230.929688 L 130.183594 223.238281 C 130.183594 223.074219 130.347656 222.914062 130.507812 222.914062 C 130.671875 222.914062 130.832031 223.074219 130.832031 223.238281 L 130.832031 230.929688 C 130.832031 231.171875 130.671875 231.253906 130.507812 231.253906 Z M 130.507812 231.253906"/><path fill="#C6E2FA" d="M 324.753906 41.996094 L 292.527344 41.996094 C 292.367188 41.996094 292.203125 41.835938 292.203125 41.671875 C 292.203125 41.511719 292.367188 41.347656 292.527344 41.347656 L 324.753906 41.347656 C 324.917969 41.347656 325.078125 41.511719 325.078125 41.671875 C 325.078125 41.835938 324.917969 41.996094 324.753906 41.996094 Z M 324.753906 41.996094"/><path fill="#C6E2FA" d="M 324.753906 57.949219 L 292.527344 57.949219 C 292.367188 57.949219 292.203125 57.789062 292.203125 57.625 C 292.203125 57.464844 292.367188 57.300781 292.527344 57.300781 L 324.753906 57.300781 C 324.917969 57.300781 325.078125 57.464844 325.078125 57.625 C 325.078125 57.789062 324.917969 57.949219 324.753906 57.949219 Z M 324.753906 57.949219"/><path fill="#C6E2FA" d="M 318.84375 49.933594 L 273.257812 49.933594 C 273.097656 49.933594 272.933594 49.769531 272.933594 49.609375 C 272.933594 49.445312 273.097656 49.285156 273.257812 49.285156 L 318.84375 49.285156 C 319.003906 49.285156 319.167969 49.445312 319.167969 49.609375 C 319.167969 49.769531 319.003906 49.933594 318.84375 49.933594 Z M 318.84375 49.933594"/><path fill="#C6E2FA" d="M 299.085938 41.996094 C 298.925781 41.996094 298.761719 41.835938 298.761719 41.671875 L 298.761719 34.871094 C 298.761719 34.707031 298.925781 34.546875 299.085938 34.546875 C 299.25 34.546875 299.410156 34.707031 299.410156 34.871094 L 299.410156 41.671875 C 299.410156 41.835938 299.25 41.996094 299.085938 41.996094 Z M 299.085938 41.996094"/><path fill="#C6E2FA" d="M 310.421875 49.933594 C 310.261719 49.933594 310.097656 49.769531 310.097656 49.609375 L 310.097656 41.589844 C 310.097656 41.429688 310.261719 41.269531 310.421875 41.269531 C 310.585938 41.269531 310.746094 41.429688 310.746094 41.589844 L 310.746094 49.609375 C 310.746094 49.851562 310.585938 49.933594 310.421875 49.933594 Z M 310.421875 49.933594"/><path fill="#C6E2FA" d="M 301.839844 57.707031 C 301.679688 57.707031 301.515625 57.546875 301.515625 57.382812 L 301.515625 49.691406 C 301.515625 49.527344 301.679688 49.367188 301.839844 49.367188 C 302.003906 49.367188 302.164062 49.527344 302.164062 49.691406 L 302.164062 57.382812 C 302.164062 57.546875 302.003906 57.707031 301.839844 57.707031 Z M 301.839844 57.707031"/><path fill="#C6E2FA" d="M 129.941406 80.21875 L 97.71875 80.21875 C 97.554688 80.21875 97.394531 80.058594 97.394531 79.898438 C 97.394531 79.734375 97.554688 79.574219 97.71875 79.574219 L 129.941406 79.574219 C 130.105469 79.574219 130.265625 79.734375 130.265625 79.898438 C 130.265625 80.058594 130.105469 80.21875 129.941406 80.21875 Z M 129.941406 80.21875"/><path fill="#C6E2FA" d="M 129.941406 96.175781 L 97.71875 96.175781 C 97.554688 96.175781 97.394531 96.011719 97.394531 95.851562 C 97.394531 95.6875 97.554688 95.527344 97.71875 95.527344 L 129.941406 95.527344 C 130.105469 95.527344 130.265625 95.6875 130.265625 95.851562 C 130.265625 96.011719 130.105469 96.175781 129.941406 96.175781 Z M 129.941406 96.175781"/><path fill="#C6E2FA" d="M 124.03125 88.15625 L 78.445312 88.15625 C 78.285156 88.15625 78.121094 87.996094 78.121094 87.832031 C 78.121094 87.671875 78.285156 87.507812 78.445312 87.507812 L 124.03125 87.507812 C 124.195312 87.507812 124.355469 87.671875 124.355469 87.832031 C 124.355469 87.996094 124.195312 88.15625 124.03125 88.15625 Z M 124.03125 88.15625"/><path fill="#C6E2FA" d="M 104.273438 80.21875 C 104.113281 80.21875 103.953125 80.058594 103.953125 79.898438 L 103.953125 73.09375 C 103.953125 72.933594 104.113281 72.769531 104.273438 72.769531 C 104.4375 72.769531 104.597656 72.933594 104.597656 73.09375 L 104.597656 79.898438 C 104.597656 80.058594 104.519531 80.21875 104.273438 80.21875 Z M 104.273438 80.21875"/><path fill="#C6E2FA" d="M 115.609375 88.15625 C 115.449219 88.15625 115.289062 87.996094 115.289062 87.832031 L 115.289062 79.816406 C 115.289062 79.652344 115.449219 79.492188 115.609375 79.492188 C 115.773438 79.492188 115.933594 79.652344 115.933594 79.816406 L 115.933594 87.832031 C 115.933594 88.074219 115.773438 88.15625 115.609375 88.15625 Z M 115.609375 88.15625"/><path fill="#C6E2FA" d="M 107.027344 95.929688 C 106.867188 95.929688 106.703125 95.769531 106.703125 95.609375 L 106.703125 87.914062 C 106.703125 87.753906 106.867188 87.589844 107.027344 87.589844 C 107.191406 87.589844 107.351562 87.753906 107.351562 87.914062 L 107.351562 95.609375 C 107.351562 95.769531 107.191406 95.929688 107.027344 95.929688 Z M 107.027344 95.929688"/><path fill="#C6E2FA" d="M 347.265625 107.996094 L 315.039062 107.996094 C 314.875 107.996094 314.714844 107.835938 314.714844 107.675781 C 314.714844 107.511719 314.875 107.351562 315.039062 107.351562 L 347.265625 107.351562 C 347.425781 107.351562 347.585938 107.511719 347.585938 107.675781 C 347.585938 107.835938 347.425781 107.996094 347.265625 107.996094 Z M 347.265625 107.996094"/><path fill="#C6E2FA" d="M 347.265625 124.03125 L 315.039062 124.03125 C 314.875 124.03125 314.714844 123.871094 314.714844 123.707031 C 314.714844 123.546875 314.875 123.382812 315.039062 123.382812 L 347.265625 123.382812 C 347.425781 123.382812 347.585938 123.546875 347.585938 123.707031 C 347.585938 123.871094 347.425781 124.03125 347.265625 124.03125 Z M 347.265625 124.03125"/><path fill="#C6E2FA" d="M 341.433594 116.015625 L 295.847656 116.015625 C 295.6875 116.015625 295.523438 115.851562 295.523438 115.691406 C 295.523438 115.53125 295.6875 115.367188 295.847656 115.367188 L 341.433594 115.367188 C 341.597656 115.367188 341.757812 115.53125 341.757812 115.691406 C 341.757812 115.851562 341.597656 116.015625 341.433594 116.015625 Z M 341.433594 116.015625"/><path fill="#C6E2FA" d="M 321.675781 107.996094 C 321.515625 107.996094 321.355469 107.835938 321.355469 107.675781 L 321.355469 100.871094 C 321.355469 100.710938 321.515625 100.546875 321.675781 100.546875 C 321.839844 100.546875 322 100.710938 322 100.871094 L 322 107.675781 C 322 107.917969 321.839844 107.996094 321.675781 107.996094 Z M 321.675781 107.996094"/><path fill="#C6E2FA" d="M 333.011719 116.015625 C 332.851562 116.015625 332.6875 115.851562 332.6875 115.691406 L 332.6875 107.675781 C 332.6875 107.511719 332.851562 107.351562 333.011719 107.351562 C 333.175781 107.351562 333.335938 107.511719 333.335938 107.675781 L 333.335938 115.691406 C 333.335938 115.851562 333.175781 116.015625 333.011719 116.015625 Z M 333.011719 116.015625"/><path fill="#C6E2FA" d="M 324.429688 123.707031 C 324.269531 123.707031 324.105469 123.546875 324.105469 123.382812 L 324.105469 115.691406 C 324.105469 115.53125 324.269531 115.367188 324.429688 115.367188 C 324.59375 115.367188 324.753906 115.53125 324.753906 115.691406 L 324.753906 123.382812 C 324.671875 123.628906 324.59375 123.707031 324.429688 123.707031 Z M 324.429688 123.707031"/><path d="M 189.617188 175.132812 L 189.617188 174.324219 C 191.722656 174.242188 193.90625 174.082031 196.011719 173.917969 L 196.09375 174.726562 C 193.988281 174.890625 191.804688 175.050781 189.617188 175.132812 Z M 183.140625 175.050781 C 180.953125 174.972656 178.847656 174.726562 176.660156 174.484375 L 176.742188 173.675781 C 178.847656 173.917969 181.035156 174.160156 183.140625 174.242188 Z M 170.265625 173.433594 C 168.160156 173.027344 166.054688 172.460938 163.949219 171.894531 L 164.191406 171.082031 C 166.214844 171.652344 168.320312 172.21875 170.425781 172.621094 Z M 157.714844 169.789062 C 155.691406 169.058594 153.667969 168.167969 151.722656 167.277344 L 152.046875 166.550781 C 153.992188 167.441406 156.015625 168.332031 157.957031 169.058594 Z M 145.972656 164.28125 C 144.113281 163.230469 142.25 162.015625 140.46875 160.800781 L 140.953125 160.152344 C 142.734375 161.367188 144.515625 162.5 146.378906 163.550781 Z M 135.285156 156.910156 L 135.042969 156.75 C 133.425781 155.453125 131.886719 153.996094 130.429688 152.539062 L 130.996094 151.972656 C 132.453125 153.429688 133.992188 154.804688 135.53125 156.101562 L 135.773438 156.265625 Z M 125.976562 147.761719 C 124.597656 146.140625 123.222656 144.359375 122.007812 142.660156 L 122.65625 142.171875 C 123.871094 143.953125 125.246094 145.65625 126.621094 147.273438 Z M 118.445312 137.152344 C 117.3125 135.289062 116.339844 133.34375 115.367188 131.402344 L 116.097656 131.078125 C 116.988281 133.023438 118.039062 134.882812 119.09375 136.746094 Z M 112.859375 125.410156 C 112.128906 123.382812 111.402344 121.277344 110.832031 119.253906 L 111.644531 119.011719 C 112.210938 121.035156 112.859375 123.140625 113.667969 125.167969 Z M 109.375 112.855469 C 108.972656 110.75 108.730469 108.566406 108.484375 106.378906 L 109.296875 106.296875 C 109.457031 108.402344 109.78125 110.589844 110.1875 112.695312 Z M 109.050781 99.898438 L 108.242188 99.898438 L 108.242188 99.332031 C 108.242188 97.390625 108.40625 95.363281 108.648438 93.421875 L 109.457031 93.5 C 109.214844 95.445312 109.132812 97.390625 109.050781 99.332031 Z M 110.429688 87.105469 L 109.621094 86.941406 C 110.023438 84.835938 110.589844 82.730469 111.238281 80.625 L 112.046875 80.867188 C 111.480469 82.972656 110.914062 85.078125 110.429688 87.105469 Z M 315.117188 75.117188 C 314.632812 75.117188 314.148438 75.117188 313.660156 75.117188 C 312.527344 75.117188 311.394531 75.039062 310.261719 74.957031 L 310.34375 74.148438 C 311.476562 74.226562 312.609375 74.308594 313.742188 74.308594 C 314.796875 74.308594 315.765625 74.308594 316.820312 74.308594 L 316.820312 75.117188 C 316.253906 75.117188 315.6875 75.117188 315.117188 75.117188 Z M 114.316406 74.875 L 113.585938 74.550781 C 114.394531 72.527344 115.367188 70.582031 116.421875 68.640625 L 117.148438 69.046875 C 116.015625 70.90625 115.125 72.933594 114.316406 74.875 Z M 323.296875 74.632812 L 323.214844 73.824219 C 325.320312 73.578125 327.425781 73.175781 329.53125 72.6875 L 329.695312 73.5 C 327.589844 73.984375 325.402344 74.390625 323.296875 74.632812 Z M 303.785156 74.148438 C 301.757812 73.824219 299.574219 73.335938 297.386719 72.769531 L 297.546875 71.960938 C 299.734375 72.527344 301.839844 72.933594 303.863281 73.257812 Z M 336.007812 71.878906 L 335.765625 71.070312 C 337.789062 70.421875 339.816406 69.773438 341.839844 68.964844 L 342.164062 69.691406 C 340.058594 70.503906 338.035156 71.230469 336.007812 71.878906 Z M 291.152344 71.070312 C 289.207031 70.421875 287.105469 69.773438 285 68.964844 L 285.242188 68.234375 C 287.347656 69.046875 289.371094 69.691406 291.3125 70.339844 Z M 348.15625 67.183594 L 347.832031 66.453125 C 349.691406 65.5625 351.636719 64.589844 353.578125 63.617188 L 353.984375 64.347656 C 351.960938 65.320312 350.015625 66.292969 348.15625 67.183594 Z M 279.007812 66.535156 C 277.304688 65.886719 275.605469 65.078125 273.664062 64.265625 L 273.097656 64.023438 L 273.417969 63.296875 L 273.988281 63.539062 C 275.929688 64.347656 277.710938 65.15625 279.332031 65.804688 Z M 120.386719 63.539062 L 119.660156 63.050781 C 120.875 61.269531 122.167969 59.488281 123.546875 57.789062 L 124.195312 58.273438 C 122.816406 59.976562 121.523438 61.757812 120.386719 63.539062 Z M 267.105469 61.433594 C 265.160156 60.542969 263.136719 59.652344 261.195312 58.761719 L 261.515625 58.03125 C 263.460938 58.921875 265.484375 59.8125 267.429688 60.703125 Z M 359.652344 61.109375 L 359.246094 60.378906 C 360.460938 59.652344 361.757812 58.921875 363.054688 58.113281 L 363.457031 58.761719 C 362.164062 59.652344 360.867188 60.378906 359.652344 61.109375 Z M 255.28125 56.085938 C 253.339844 55.195312 251.316406 54.304688 249.371094 53.414062 L 249.695312 52.6875 C 251.640625 53.578125 253.664062 54.46875 255.605469 55.359375 Z M 128.484375 53.578125 L 127.917969 53.011719 C 129.457031 51.472656 131.074219 50.015625 132.777344 48.636719 L 133.261719 49.285156 C 131.644531 50.582031 130.023438 52.039062 128.484375 53.578125 Z M 243.460938 50.742188 C 241.519531 49.851562 239.492188 49.042969 237.550781 48.152344 L 237.875 47.421875 C 239.898438 48.230469 241.84375 49.121094 243.867188 50.015625 Z M 231.558594 45.722656 C 229.453125 44.910156 227.429688 44.101562 225.484375 43.375 L 225.730469 42.644531 C 227.671875 43.375 229.695312 44.101562 231.800781 44.992188 Z M 138.445312 45.480469 L 138.039062 44.832031 C 138.28125 44.667969 138.523438 44.507812 138.6875 44.425781 C 140.304688 43.453125 141.925781 42.480469 143.625 41.589844 L 144.03125 42.320312 C 142.332031 43.210938 140.710938 44.101562 139.171875 45.074219 C 138.929688 45.15625 138.6875 45.316406 138.445312 45.480469 Z M 219.414062 41.347656 C 217.308594 40.621094 215.285156 39.972656 213.261719 39.40625 L 213.503906 38.59375 C 215.527344 39.160156 217.632812 39.808594 219.738281 40.539062 Z M 149.859375 39.566406 L 149.535156 38.839844 C 151.5625 38.027344 153.585938 37.378906 155.691406 36.734375 L 155.933594 37.542969 C 153.910156 38.109375 151.886719 38.839844 149.859375 39.566406 Z M 207.023438 37.703125 C 204.921875 37.21875 202.816406 36.734375 200.710938 36.328125 L 200.871094 35.519531 C 202.976562 35.921875 205.082031 36.410156 207.1875 36.894531 Z M 162.25 35.921875 L 162.085938 35.113281 C 164.191406 34.707031 166.296875 34.382812 168.484375 34.058594 L 168.566406 34.871094 C 166.460938 35.195312 164.273438 35.519531 162.25 35.921875 Z M 194.3125 35.273438 C 192.125 34.949219 190.023438 34.789062 187.917969 34.546875 L 187.996094 33.734375 C 190.101562 33.898438 192.289062 34.140625 194.476562 34.464844 Z M 175.042969 34.382812 L 175.042969 33.574219 C 177.148438 33.492188 179.332031 33.414062 181.519531 33.492188 L 181.519531 34.304688 C 179.332031 34.222656 177.148438 34.304688 175.042969 34.382812 Z M 175.042969 34.382812"/><path fill="#060405" d="M 294.875 66.128906 L 294.875 298.792969 C 294.875 307.378906 287.914062 314.425781 279.25 314.425781 L 166.785156 314.425781 C 158.121094 314.425781 151.15625 307.460938 151.15625 298.792969 L 151.15625 66.128906 C 151.15625 57.464844 158.121094 50.5 166.785156 50.5 L 279.25 50.5 C 287.914062 50.5 294.875 57.464844 294.875 66.128906 Z M 294.875 66.128906"/><path fill="#FFF" d="M 151.15625 71.472656 L 294.875 71.472656 L 294.875 289.5625 L 151.15625 289.5625 Z M 151.15625 71.472656"/><path fill="#060405" d="M 151.15625 79.898438 L 294.875 79.898438 L 294.875 205.097656 L 151.15625 205.097656 Z M 151.15625 79.898438" fill-opacity=".098"/><path fill="#6193F6" d="M 295.605469 201.695312 L 150.429688 201.695312 C 146.054688 201.695312 142.574219 198.214844 142.574219 193.839844 L 142.574219 91.234375 C 142.574219 86.859375 146.054688 83.378906 150.429688 83.378906 L 295.605469 83.378906 C 299.976562 83.378906 303.460938 86.859375 303.460938 91.234375 L 303.460938 193.839844 C 303.460938 198.132812 299.976562 201.695312 295.605469 201.695312 Z M 295.605469 201.695312"/><path fill="#417AD6" d="M 278.84375 113.667969 L 278.84375 189.46875 L 276.738281 189.46875 L 276.738281 116.5 Z M 278.84375 113.667969"/><path fill="#417AD6" d="M 265.648438 131.96875 L 265.648438 189.46875 L 263.542969 189.46875 L 263.542969 134.882812 Z M 265.648438 131.96875"/><path fill="#417AD6" d="M 252.449219 136.421875 L 252.449219 189.46875 L 250.34375 189.46875 L 250.34375 135.207031 Z M 252.449219 136.421875"/><path fill="#417AD6" d="M 239.171875 128.566406 L 239.171875 189.46875 L 237.144531 189.46875 L 237.144531 129.945312 L 238.441406 128.164062 Z M 239.171875 128.566406"/><path fill="#417AD6" d="M 225.972656 144.683594 L 225.972656 189.46875 L 223.949219 189.46875 L 223.949219 147.4375 Z M 225.972656 144.683594"/><path fill="#417AD6" d="M 212.773438 162.175781 L 212.773438 189.46875 L 210.667969 189.46875 L 210.667969 164.929688 Z M 212.773438 162.175781"/><path fill="#417AD6" d="M 199.574219 158.695312 L 199.574219 189.46875 L 197.472656 189.46875 L 197.472656 157.558594 Z M 199.574219 158.695312"/><path fill="#417AD6" d="M 186.296875 155.453125 L 186.296875 189.46875 L 184.273438 189.46875 L 184.273438 157.722656 Z M 186.296875 155.453125"/><path fill="#417AD6" d="M 173.097656 170.273438 L 173.097656 189.46875 L 171.074219 189.46875 L 171.074219 172.542969 Z M 173.097656 170.273438"/><path fill="#060405" d="M 150.429688 189.46875 L 295.6875 189.46875 L 295.6875 192.300781 L 150.429688 192.300781 Z M 150.429688 189.46875"/><path fill="#417AD6" d="M 290.019531 102.492188 L 292.125 102.492188 L 292.125 189.46875 L 290.019531 189.46875 Z M 290.019531 102.492188"/><path fill="#417AD6" d="M 292.042969 177.96875 L 292.042969 180.074219 L 164.355469 180.074219 L 166.214844 177.96875 Z M 292.042969 177.96875"/><path fill="#417AD6" d="M 292.042969 164.765625 L 292.042969 166.871094 L 176.175781 166.871094 L 177.957031 164.765625 Z M 292.042969 164.765625"/><path fill="#417AD6" d="M 188.726562 152.699219 L 190.34375 153.589844 L 187.917969 153.589844 Z M 188.726562 152.699219"/><path fill="#417AD6" d="M 292.042969 151.566406 L 292.042969 153.589844 L 219.25 153.589844 L 220.789062 151.566406 Z M 292.042969 151.566406"/><path fill="#417AD6" d="M 263.703125 138.367188 L 292.042969 138.367188 L 292.042969 140.472656 L 263.703125 140.472656 Z M 263.703125 138.367188"/><path fill="#417AD6" d="M 292.042969 125.085938 L 292.042969 127.191406 L 269.128906 127.191406 L 270.585938 125.085938 Z M 292.042969 125.085938"/><path fill="#F2CB2A" d="M 239.980469 135.773438 L 239.171875 136.746094 L 212.773438 171.730469 L 212.289062 172.378906 L 210.667969 171.570312 L 189.941406 159.988281 L 163.707031 189.46875 L 155.933594 189.46875 L 187.917969 153.589844 L 188.726562 152.699219 L 190.34375 153.589844 L 210.425781 164.765625 L 210.667969 164.929688 L 210.832031 164.765625 L 237.144531 129.945312 L 238.441406 128.164062 L 239.171875 128.566406 L 259.167969 140.390625 L 259.492188 140.554688 L 259.574219 140.390625 L 284.269531 106.136719 L 288.964844 109.535156 L 263.542969 144.765625 L 261.03125 148.246094"/><path fill="#F2CB2A" d="M 292.042969 99.25 L 291.960938 116.339844 L 276.171875 105.40625"/><path fill="#FFF" d="M 223.949219 132.699219 C 223.300781 133.667969 222.492188 134.398438 221.355469 134.882812 C 220.222656 135.453125 218.925781 135.773438 217.390625 135.855469 L 217.390625 138.125 C 217.390625 138.367188 217.308594 138.609375 217.144531 138.851562 C 216.984375 139.015625 216.742188 139.09375 216.417969 139.09375 C 216.175781 139.09375 215.933594 139.015625 215.6875 138.851562 C 215.527344 138.691406 215.445312 138.449219 215.445312 138.125 L 215.445312 135.855469 C 213.097656 135.695312 210.910156 135.207031 208.886719 134.316406 C 208.644531 134.238281 208.402344 133.992188 208.238281 133.75 C 208.078125 133.507812 207.996094 133.265625 207.996094 132.941406 C 207.996094 132.535156 208.160156 132.292969 208.402344 131.96875 C 208.644531 131.726562 208.96875 131.5625 209.375 131.5625 C 209.617188 131.5625 209.777344 131.644531 210.019531 131.726562 C 211.800781 132.535156 213.582031 132.941406 215.527344 133.023438 L 215.527344 125.570312 C 214.070312 125.167969 212.855469 124.761719 211.800781 124.277344 C 210.832031 123.789062 209.941406 123.140625 209.292969 122.332031 C 208.644531 121.523438 208.320312 120.46875 208.320312 119.171875 C 208.320312 118.039062 208.5625 116.988281 209.128906 116.015625 C 209.695312 115.042969 210.507812 114.234375 211.558594 113.667969 C 212.691406 113.019531 213.988281 112.695312 215.527344 112.53125 L 215.527344 110.265625 C 215.527344 110.023438 215.609375 109.78125 215.769531 109.535156 C 215.933594 109.375 216.175781 109.210938 216.5 109.210938 C 216.742188 109.210938 216.984375 109.292969 217.226562 109.535156 C 217.46875 109.78125 217.550781 109.941406 217.550781 110.265625 L 217.550781 112.53125 C 219.65625 112.613281 221.519531 112.9375 223.21875 113.585938 C 223.785156 113.828125 224.109375 114.234375 224.109375 114.882812 C 224.109375 115.207031 224.027344 115.53125 223.785156 115.851562 C 223.542969 116.097656 223.21875 116.257812 222.8125 116.257812 C 222.652344 116.257812 222.492188 116.175781 222.328125 116.097656 C 220.871094 115.609375 219.25 115.285156 217.550781 115.207031 L 217.550781 122.898438 C 219.089844 123.304688 220.386719 123.628906 221.4375 124.113281 C 222.492188 124.519531 223.300781 125.167969 224.027344 126.058594 C 224.757812 126.949219 225.082031 128.082031 225.082031 129.457031 C 224.839844 130.671875 224.59375 131.726562 223.949219 132.699219 Z M 212.207031 121.199219 C 212.9375 121.683594 213.988281 122.171875 215.445312 122.492188 L 215.445312 115.367188 C 214.152344 115.53125 213.097656 115.933594 212.289062 116.582031 C 211.476562 117.230469 211.15625 118.039062 211.15625 119.011719 C 211.074219 119.984375 211.476562 120.710938 212.207031 121.199219 Z M 221.921875 129.378906 C 221.921875 128.566406 221.519531 127.839844 220.789062 127.433594 C 220.0625 126.949219 218.847656 126.542969 217.390625 126.136719 L 217.390625 133.101562 C 220.386719 132.859375 221.921875 131.644531 221.921875 129.378906 Z M 221.921875 129.378906"/><path fill="#FFF" d="M 153.992188 91.640625 L 174.554688 91.640625 L 174.554688 98.359375 L 153.992188 98.359375 Z M 153.992188 91.640625"/><path fill="#FFF" d="M 154.882812 102.492188 L 192.371094 102.492188 L 192.371094 104.355469 L 154.882812 104.355469 Z M 154.882812 102.492188"/><path fill="#FFF" d="M 154.882812 107.996094 L 192.371094 107.996094 L 192.371094 109.859375 L 154.882812 109.859375 Z M 154.882812 107.996094"/><path fill="#FFF" d="M 170.265625 113.421875 L 176.09375 113.421875 L 176.09375 115.285156 L 170.265625 115.285156 Z M 170.265625 113.421875"/><path fill="#FFF" d="M 154.882812 113.421875 L 165.082031 113.421875 L 165.082031 115.285156 L 154.882812 115.285156 Z M 154.882812 113.421875"/><path fill="#D2E4FF" d="M 280.546875 277.902344 L 165.488281 277.902344 C 163.140625 277.902344 161.277344 276.039062 161.277344 273.691406 L 161.277344 216.921875 C 161.277344 214.570312 163.140625 212.710938 165.488281 212.710938 L 280.546875 212.710938 C 282.894531 212.710938 284.753906 214.570312 284.753906 216.921875 L 284.753906 273.769531 C 284.753906 276.039062 282.894531 277.902344 280.546875 277.902344 Z M 280.546875 277.902344"/><path fill="#FFF" d="M 192.695312 246.398438 L 214.636719 252.796875 C 213.582031 255.875 211.800781 258.789062 209.375 261.21875 C 200.628906 269.964844 186.378906 269.964844 177.632812 261.21875 C 168.890625 252.472656 168.890625 238.21875 177.632812 229.472656 C 178.765625 228.339844 179.980469 227.367188 181.195312 226.558594 C 183.785156 231.011719 188.808594 239.675781 192.449219 245.992188 Z M 192.695312 246.398438"/><path fill="#060405" d="M 204.515625 225.746094 L 193.503906 242.835938 C 187.917969 233.117188 185 227.933594 183.382812 225.179688 C 190.023438 221.941406 198.039062 222.023438 204.515625 225.746094 Z M 204.515625 225.746094"/><path fill="#FF7545" d="M 209.375 229.390625 C 215.042969 235.0625 217.066406 243.078125 215.363281 250.285156 L 195.445312 244.535156 L 206.621094 227.042969 C 207.59375 227.773438 208.5625 228.582031 209.375 229.390625 Z M 209.375 229.390625"/><path fill="#FFF" d="M 229.371094 224.695312 L 273.339844 224.695312 L 273.339844 235.382812 L 229.371094 235.382812 Z M 229.371094 224.695312"/><path fill="#FFF" d="M 229.371094 240.488281 L 272.851562 240.488281 L 272.851562 242.917969 L 229.371094 242.917969 Z M 229.371094 240.488281"/><path fill="#FFF" d="M 229.371094 246.398438 L 243.300781 246.398438 L 243.300781 248.828125 L 229.371094 248.828125 Z M 229.371094 246.398438"/><path fill="#FFF" d="M 247.914062 246.398438 L 272.851562 246.398438 L 272.851562 248.828125 L 247.914062 248.828125 Z M 247.914062 246.398438"/><path fill="#FFF" d="M 229.371094 252.230469 L 258.84375 252.230469 L 258.84375 254.660156 L 229.371094 254.660156 Z M 229.371094 252.230469"/><path fill="#FFF" d="M 266.539062 252.230469 L 272.773438 252.230469 L 272.773438 254.660156 L 266.539062 254.660156 Z M 266.539062 252.230469"/><path fill="#FFF" d="M 229.371094 258.140625 L 238.765625 258.140625 L 238.765625 260.570312 L 229.371094 260.570312 Z M 229.371094 258.140625"/><path fill="#FFF" d="M 243.542969 258.140625 L 252.285156 258.140625 L 252.285156 260.570312 L 243.542969 260.570312 Z M 243.542969 258.140625"/><path fill="#D2E4FF" d="M 325.402344 211.65625 C 325.402344 211.65625 326.050781 208.984375 331.554688 209.957031 C 337.0625 210.925781 339.894531 212.953125 344.429688 213.601562 C 348.882812 214.246094 354.550781 211.332031 358.355469 212.464844 C 362.730469 213.761719 366.128906 213.679688 366.9375 213.4375 C 367.667969 213.113281 361.027344 220.320312 361.027344 220.320312 L 347.992188 224.453125 L 340.949219 222.183594 C 340.949219 222.183594 328.480469 213.761719 328.398438 213.601562 C 328.234375 213.519531 325.402344 211.65625 325.402344 211.65625 Z M 325.402344 211.65625"/><path fill="#060405" d="M 340.785156 222.671875 C 340.785156 222.671875 340.707031 222.671875 340.707031 222.589844 C 328.15625 214.085938 328.074219 214.003906 328.074219 213.925781 C 327.914062 213.84375 326.292969 212.710938 325.238281 211.980469 C 325.078125 211.898438 324.996094 211.738281 325.078125 211.574219 C 325.078125 211.414062 325.886719 208.578125 331.71875 209.550781 C 334.550781 210.035156 336.65625 210.765625 338.679688 211.496094 C 344.59375 213.601562 345.96875 213.601562 351.230469 212.464844 C 353.902344 211.898438 356.414062 211.414062 358.519531 212.0625 C 362.808594 213.355469 366.128906 213.277344 366.859375 213.035156 C 367.019531 212.953125 367.261719 213.035156 367.425781 213.195312 C 367.667969 213.519531 367.75 213.761719 361.351562 220.644531 C 361.269531 220.726562 361.269531 220.726562 361.191406 220.726562 L 348.15625 224.855469 C 347.832031 225.019531 348.15625 225.019531 340.785156 222.671875 Z M 341.109375 221.941406 L 347.992188 224.128906 L 360.785156 219.996094 C 362.890625 217.730469 365.15625 215.140625 366.128906 214.003906 C 364.589844 214.167969 361.757812 213.925781 358.277344 212.871094 C 356.332031 212.304688 353.902344 212.789062 351.3125 213.277344 C 345.886719 214.410156 344.347656 214.492188 338.277344 212.222656 C 336.253906 211.496094 334.226562 210.765625 331.476562 210.28125 C 327.507812 209.632812 326.292969 210.847656 325.886719 211.414062 C 328.480469 213.113281 328.640625 213.277344 328.640625 213.355469 C 328.964844 213.679688 336.253906 218.621094 341.109375 221.941406 Z M 341.109375 221.941406"/><path fill="#6193F6" d="M 355.523438 188.007812 C 355.523438 188.007812 356.574219 193.433594 352.609375 205.988281 C 349.207031 216.839844 353.578125 229.472656 353.578125 229.472656 L 346.210938 229.472656 C 344.914062 226.800781 346.210938 215.21875 347.019531 209.066406 C 347.75 203.074219 344.996094 198.375 344.835938 198.132812 C 348.15625 199.671875 349.9375 205.015625 349.9375 205.015625 C 352.609375 198.539062 352.609375 174.648438 352.609375 174.648438 L 355.847656 174.648438 C 356.65625 176.671875 355.847656 183.230469 355.847656 183.230469 C 357.707031 179.910156 360.058594 181.691406 360.058594 181.691406 C 357.386719 182.503906 355.523438 188.007812 355.523438 188.007812 Z M 355.523438 188.007812"/><path fill="#6193F6" d="M 358.03125 181.855469 C 359.410156 179.019531 361.433594 177.480469 363.621094 177.320312 C 365.804688 177.078125 368.074219 178.210938 370.015625 180.640625 C 367.261719 186.308594 361.917969 186.792969 358.03125 181.855469 Z M 358.03125 181.855469"/><path fill="#6193F6" d="M 337.789062 190.761719 C 340.867188 190.113281 343.296875 190.761719 344.835938 192.382812 C 346.375 193.921875 346.859375 196.433594 346.128906 199.507812 C 339.976562 200.722656 336.253906 196.835938 337.789062 190.761719 Z M 337.789062 190.761719"/><path fill="#FFF" d="M 386.613281 290.046875 C 385.804688 305.355469 367.507812 313.210938 348.558594 313.613281 C 328.558594 314.101562 307.992188 306.246094 307.101562 290.046875 C 305.484375 258.546875 337.144531 232.875 337.144531 232.875 C 337.304688 224.453125 324.835938 216.355469 325.160156 212.628906 C 325.5625 208.175781 330.828125 213.277344 334.46875 213.84375 C 338.113281 214.328125 342.566406 211.738281 346.695312 210.523438 C 350.828125 209.308594 350.664062 212.953125 355.925781 215.300781 C 361.109375 217.648438 366.292969 210.199219 368.964844 213.035156 C 371.636719 215.867188 366.453125 219.269531 361.027344 223.15625 C 355.605469 226.960938 356.574219 233.035156 356.574219 233.035156 C 356.574219 233.035156 388.152344 258.546875 386.613281 290.046875 Z M 386.613281 290.046875"/><path fill="#D2E4FF" d="M 386.613281 290.046875 C 385.804688 305.355469 367.507812 313.210938 348.558594 313.613281 C 350.339844 311.996094 352.121094 310.375 353.742188 308.59375 C 359.328125 302.84375 364.347656 296.121094 366.535156 288.347656 C 369.609375 277.578125 367.101562 265.753906 361.351562 256.117188 C 358.84375 251.90625 355.765625 248.097656 352.285156 244.699219 C 347.992188 240.488281 342.890625 235.871094 337.546875 232.792969 L 356.574219 232.792969 C 356.574219 232.957031 388.152344 258.546875 386.613281 290.046875 Z M 386.613281 290.046875"/><path fill="#060405" d="M 346.941406 314.101562 C 327.34375 314.101562 307.589844 306.003906 306.777344 290.128906 C 305.242188 259.839844 334.550781 234.65625 336.820312 232.792969 C 336.820312 228.015625 332.609375 223.316406 329.207031 219.511719 C 326.699219 216.675781 324.671875 214.410156 324.835938 212.710938 C 324.917969 211.738281 325.238281 211.089844 325.808594 210.765625 C 326.941406 210.117188 328.640625 211.007812 330.585938 211.980469 C 331.960938 212.710938 333.417969 213.355469 334.550781 213.519531 C 336.980469 213.84375 339.894531 212.710938 342.648438 211.65625 C 348.074219 209.550781 348.964844 209.226562 351.71875 211.898438 C 352.6875 212.871094 353.902344 214.003906 356.007812 214.976562 C 358.519531 216.109375 361.191406 214.734375 363.457031 213.519531 C 365.644531 212.304688 367.667969 211.25 369.207031 212.789062 C 369.855469 213.4375 370.097656 214.167969 370.015625 214.976562 C 369.773438 217.488281 366.046875 220.078125 361.757812 223.074219 L 361.273438 223.480469 C 356.496094 226.800781 356.898438 231.820312 356.980469 232.792969 C 359.167969 234.65625 388.558594 259.839844 387.019531 290.210938 C 386.210938 306.164062 367.101562 313.777344 348.558594 314.179688 C 347.992188 314.101562 347.425781 314.101562 346.941406 314.101562 Z M 337.386719 233.277344 C 336.007812 234.414062 306.050781 259.679688 307.589844 290.046875 C 308.398438 305.921875 328.804688 313.695312 348.558594 313.289062 C 366.695312 312.886719 385.398438 305.515625 386.210938 290.046875 C 387.75 259.113281 356.65625 233.523438 356.332031 233.199219 C 356.25 233.117188 356.171875 233.035156 356.171875 232.957031 C 356.171875 232.875 355.199219 226.636719 360.785156 222.75 L 361.273438 222.347656 C 365.238281 219.59375 368.964844 216.921875 369.207031 214.816406 C 369.289062 214.25 369.042969 213.761719 368.640625 213.277344 C 367.667969 212.222656 366.210938 212.953125 363.863281 214.167969 C 361.515625 215.460938 358.597656 217 355.683594 215.707031 C 353.417969 214.734375 352.121094 213.4375 351.148438 212.464844 C 348.722656 210.117188 348.316406 210.28125 342.890625 212.386719 C 339.976562 213.519531 336.980469 214.652344 334.390625 214.328125 C 333.09375 214.167969 331.554688 213.355469 330.097656 212.710938 C 328.480469 211.898438 326.859375 211.089844 326.050781 211.496094 C 325.726562 211.65625 325.5625 212.140625 325.484375 212.871094 C 325.402344 214.25 327.34375 216.433594 329.695312 219.027344 C 333.257812 222.996094 337.628906 227.933594 337.546875 233.035156 C 337.546875 233.117188 337.464844 233.199219 337.386719 233.277344 Z M 386.613281 290.046875 Z M 386.613281 290.046875"/><path fill="#6193F6" d="M 359.976562 274.417969 C 359.976562 275.316406 359.886719 276.207031 359.714844 277.089844 C 359.539062 277.96875 359.277344 278.824219 358.933594 279.65625 C 358.589844 280.484375 358.167969 281.273438 357.667969 282.023438 C 357.171875 282.769531 356.601562 283.460938 355.96875 284.097656 C 355.332031 284.730469 354.640625 285.300781 353.894531 285.796875 C 353.148438 286.296875 352.359375 286.71875 351.527344 287.0625 C 350.699219 287.40625 349.84375 287.667969 348.960938 287.84375 C 348.082031 288.015625 347.191406 288.105469 346.292969 288.105469 C 345.394531 288.105469 344.503906 288.015625 343.621094 287.84375 C 342.742188 287.667969 341.886719 287.40625 341.054688 287.0625 C 340.226562 286.71875 339.4375 286.296875 338.691406 285.796875 C 337.941406 285.300781 337.25 284.730469 336.617188 284.097656 C 335.980469 283.460938 335.414062 282.769531 334.914062 282.023438 C 334.414062 281.273438 333.992188 280.484375 333.648438 279.65625 C 333.304688 278.824219 333.046875 277.96875 332.871094 277.089844 C 332.695312 276.207031 332.609375 275.316406 332.609375 274.417969 C 332.609375 273.519531 332.695312 272.628906 332.871094 271.75 C 333.046875 270.867188 333.304688 270.011719 333.648438 269.179688 C 333.992188 268.351562 334.414062 267.5625 334.914062 266.816406 C 335.414062 266.066406 335.980469 265.375 336.617188 264.742188 C 337.25 264.105469 337.941406 263.539062 338.691406 263.039062 C 339.4375 262.539062 340.226562 262.117188 341.054688 261.773438 C 341.886719 261.429688 342.742188 261.171875 343.621094 260.996094 C 344.503906 260.820312 345.394531 260.734375 346.292969 260.734375 C 347.191406 260.734375 348.082031 260.820312 348.960938 260.996094 C 349.84375 261.171875 350.699219 261.429688 351.527344 261.773438 C 352.359375 262.117188 353.148438 262.539062 353.894531 263.039062 C 354.640625 263.539062 355.332031 264.105469 355.96875 264.742188 C 356.601562 265.375 357.171875 266.066406 357.667969 266.816406 C 358.167969 267.5625 358.589844 268.351562 358.933594 269.179688 C 359.277344 270.011719 359.539062 270.867188 359.714844 271.75 C 359.886719 272.628906 359.976562 273.519531 359.976562 274.417969 Z M 359.976562 274.417969"/><path fill="#FFF" d="M 351.148438 279.84375 C 350.746094 280.410156 350.179688 280.898438 349.449219 281.300781 C 348.722656 281.625 347.832031 281.867188 346.941406 281.949219 L 346.941406 283.40625 C 346.941406 283.570312 346.859375 283.730469 346.777344 283.894531 C 346.695312 283.976562 346.535156 284.054688 346.292969 284.054688 C 346.128906 284.054688 345.96875 283.976562 345.804688 283.894531 C 345.726562 283.8125 345.644531 283.652344 345.644531 283.40625 L 345.644531 281.949219 C 344.105469 281.867188 342.730469 281.546875 341.433594 280.976562 C 341.273438 280.898438 341.109375 280.816406 341.027344 280.65625 C 340.949219 280.492188 340.867188 280.332031 340.867188 280.167969 C 340.867188 279.925781 340.949219 279.761719 341.109375 279.519531 C 341.273438 279.359375 341.515625 279.277344 341.757812 279.277344 C 341.917969 279.277344 342 279.277344 342.164062 279.359375 C 343.296875 279.84375 344.511719 280.167969 345.726562 280.167969 L 345.726562 275.226562 C 344.753906 274.984375 343.945312 274.742188 343.296875 274.417969 C 342.648438 274.09375 342.082031 273.691406 341.675781 273.203125 C 341.273438 272.636719 341.027344 271.988281 341.027344 271.179688 C 341.027344 270.449219 341.191406 269.800781 341.597656 269.15625 C 341.917969 268.507812 342.488281 268.019531 343.214844 267.617188 C 343.945312 267.210938 344.753906 266.96875 345.726562 266.886719 L 345.726562 265.429688 C 345.726562 265.265625 345.804688 265.105469 345.886719 264.945312 C 345.96875 264.78125 346.128906 264.78125 346.375 264.78125 C 346.535156 264.78125 346.695312 264.863281 346.859375 264.945312 C 347.019531 265.105469 347.019531 265.1875 347.019531 265.429688 L 347.019531 266.886719 C 348.398438 266.96875 349.613281 267.210938 350.664062 267.617188 C 351.070312 267.777344 351.230469 268.019531 351.230469 268.425781 C 351.230469 268.667969 351.148438 268.832031 350.988281 268.992188 C 350.828125 269.15625 350.664062 269.234375 350.339844 269.234375 C 350.257812 269.234375 350.179688 269.234375 350.015625 269.15625 C 349.046875 268.832031 348.074219 268.667969 346.941406 268.585938 L 346.941406 273.609375 C 347.910156 273.851562 348.800781 274.09375 349.449219 274.417969 C 350.097656 274.660156 350.664062 275.148438 351.148438 275.632812 C 351.636719 276.199219 351.796875 276.929688 351.796875 277.820312 C 351.796875 278.546875 351.554688 279.195312 351.148438 279.84375 Z M 343.621094 272.476562 C 344.105469 272.800781 344.753906 273.121094 345.644531 273.367188 L 345.644531 268.75 C 344.835938 268.832031 344.105469 269.15625 343.621094 269.480469 C 343.132812 269.882812 342.890625 270.371094 342.890625 271.015625 C 342.890625 271.664062 343.132812 272.070312 343.621094 272.476562 Z M 349.855469 277.65625 C 349.855469 277.089844 349.613281 276.6875 349.125 276.363281 C 348.640625 276.039062 347.910156 275.796875 346.941406 275.550781 L 346.941406 280.085938 C 348.882812 279.925781 349.855469 279.117188 349.855469 277.65625 Z M 349.855469 277.65625"/><path fill="#060405" d="M 358.4375 233.441406 L 335.363281 233.441406 C 334.792969 233.441406 334.308594 232.957031 334.308594 232.386719 L 334.308594 231.820312 C 334.308594 231.253906 334.792969 230.769531 335.363281 230.769531 L 358.4375 230.769531 C 359.003906 230.769531 359.488281 231.253906 359.488281 231.820312 L 359.488281 232.386719 C 359.488281 233.035156 359.003906 233.441406 358.4375 233.441406 Z M 358.4375 233.441406"/><path fill="#060405" d="M 371.3125 244.777344 C 369.449219 242.105469 366.292969 240.40625 363.054688 240.324219 C 360.625 240.324219 357.386719 241.296875 354.390625 237.167969 C 353.335938 235.707031 352.609375 234.007812 351.960938 232.46875 L 352.6875 232.144531 C 353.335938 233.683594 353.984375 235.304688 354.957031 236.679688 C 357.789062 240.488281 360.625 239.433594 362.972656 239.515625 C 366.453125 239.597656 369.933594 241.378906 371.878906 244.292969 Z M 371.3125 244.777344"/><path fill="#060405" d="M 335.765625 246.480469 C 334.792969 243.808594 335.847656 240.488281 338.277344 238.949219 C 339.410156 238.21875 340.707031 237.894531 341.917969 237.570312 C 343.457031 237.167969 344.996094 236.761719 346.050781 235.707031 C 346.617188 235.140625 346.941406 234.492188 346.859375 233.925781 C 346.859375 233.359375 346.375 232.792969 345.804688 232.792969 L 345.804688 231.984375 C 346.859375 231.984375 347.585938 232.957031 347.667969 233.925781 C 347.75 235.0625 347.019531 235.871094 346.617188 236.277344 C 345.402344 237.488281 343.78125 237.894531 342.164062 238.300781 C 340.949219 238.625 339.734375 238.949219 338.761719 239.597656 C 336.65625 240.972656 335.683594 243.808594 336.574219 246.15625 Z M 335.765625 246.480469"/><g clip-path="url(#a)"><path fill="#EFC102" d="M 108.648438 306.570312 L 108.648438 324.304688 C 108.648438 326.003906 107.433594 327.460938 105.976562 327.460938 L 21.28125 327.460938 C 20.472656 327.460938 19.824219 327.058594 19.339844 326.410156 C 18.933594 325.84375 18.609375 325.113281 18.609375 324.304688 L 18.609375 306.570312 C 18.609375 304.867188 19.824219 303.410156 21.28125 303.410156 L 105.976562 303.410156 C 106.21875 303.410156 106.378906 303.410156 106.542969 303.492188 C 107.757812 303.816406 108.648438 305.109375 108.648438 306.570312 Z M 108.648438 306.570312"/></g><g clip-path="url(#b)"><path d="M 108.648438 320.660156 L 108.648438 324.304688 C 108.648438 326.003906 107.433594 327.460938 105.976562 327.460938 L 21.28125 327.460938 C 19.824219 327.460938 18.609375 326.085938 18.609375 324.304688 L 18.609375 320.660156 C 18.609375 322.359375 19.824219 323.820312 21.28125 323.820312 L 105.976562 323.820312 C 107.515625 323.820312 108.648438 322.359375 108.648438 320.660156 Z M 108.648438 320.660156" fill-opacity=".149"/></g><g clip-path="url(#c)"><path fill="#FFF" d="M 108.648438 306.570312 L 108.648438 310.699219 L 88.808594 327.382812 L 21.28125 327.382812 C 20.472656 327.382812 19.824219 326.976562 19.339844 326.328125 C 18.933594 325.761719 18.609375 325.035156 18.609375 324.222656 L 18.609375 317.988281 L 35.9375 303.410156 L 105.976562 303.410156 C 106.21875 303.410156 106.378906 303.410156 106.542969 303.492188 C 107.757812 303.816406 108.648438 305.109375 108.648438 306.570312 Z M 108.648438 306.570312" fill-opacity=".098"/></g><g clip-path="url(#d)"><path fill="#FFF" d="M 106.625 303.492188 L 78.203125 327.460938 L 59.742188 327.460938 L 85.003906 303.410156 L 105.894531 303.410156 C 106.21875 303.410156 106.378906 303.410156 106.625 303.492188 Z M 106.625 303.492188" fill-opacity=".149"/></g><path fill="#EFC102" d="M 116.015625 283.246094 L 116.015625 300.980469 C 116.015625 302.683594 114.800781 304.140625 113.34375 304.140625 L 28.648438 304.140625 C 27.839844 304.140625 27.191406 303.734375 26.707031 303.085938 C 26.300781 302.519531 26.058594 301.789062 26.058594 300.980469 L 26.058594 283.246094 C 26.058594 281.546875 27.273438 280.085938 28.730469 280.085938 L 113.425781 280.085938 C 113.667969 280.085938 113.828125 280.085938 113.992188 280.167969 C 115.125 280.492188 116.015625 281.789062 116.015625 283.246094 Z M 116.015625 283.246094"/><path d="M 116.015625 297.335938 L 116.015625 300.980469 C 116.015625 302.683594 114.800781 304.140625 113.34375 304.140625 L 28.648438 304.140625 C 27.191406 304.140625 25.976562 302.761719 25.976562 300.980469 L 25.976562 297.335938 C 25.976562 299.039062 27.191406 300.496094 28.648438 300.496094 L 113.34375 300.496094 C 114.882812 300.496094 116.015625 299.039062 116.015625 297.335938 Z M 116.015625 297.335938" fill-opacity=".149"/><path fill="#FFF" d="M 116.015625 283.328125 L 116.015625 287.457031 L 96.179688 304.140625 L 96.097656 304.21875 L 28.648438 304.21875 C 27.839844 304.21875 27.191406 303.816406 26.707031 303.167969 C 26.464844 302.925781 26.300781 302.519531 26.222656 302.195312 C 26.140625 301.871094 26.058594 301.46875 26.058594 301.0625 L 26.058594 294.746094 L 26.140625 294.664062 L 35.9375 286.402344 L 43.386719 280.167969 L 113.425781 280.167969 C 113.667969 280.167969 113.828125 280.167969 113.992188 280.25 C 115.125 280.574219 116.015625 281.789062 116.015625 283.328125 Z M 116.015625 283.328125" fill-opacity=".098"/><path fill="#FFF" d="M 113.992188 280.167969 L 85.570312 304.140625 L 67.191406 304.140625 L 92.453125 280.085938 L 113.34375 280.085938 C 113.585938 280.085938 113.828125 280.085938 113.992188 280.167969 Z M 113.992188 280.167969" fill-opacity=".149"/><path fill="#EFC102" d="M 108.082031 259.273438 L 108.082031 277.011719 C 108.082031 278.710938 106.867188 280.167969 105.410156 280.167969 L 20.714844 280.167969 C 19.90625 280.167969 19.257812 279.761719 18.773438 279.117188 C 18.367188 278.546875 18.125 277.820312 18.125 277.011719 L 18.125 259.273438 C 18.125 257.574219 19.339844 256.117188 20.796875 256.117188 L 105.488281 256.117188 C 105.734375 256.117188 105.894531 256.117188 106.054688 256.199219 C 107.191406 256.519531 108.082031 257.734375 108.082031 259.273438 Z M 108.082031 259.273438"/><path d="M 108.082031 273.285156 L 108.082031 276.929688 C 108.082031 278.628906 106.867188 280.085938 105.410156 280.085938 L 20.714844 280.085938 C 19.257812 280.085938 18.042969 278.710938 18.042969 276.929688 L 18.042969 273.285156 C 18.042969 274.984375 19.257812 276.441406 20.714844 276.441406 L 105.410156 276.441406 C 106.867188 276.441406 108.082031 275.066406 108.082031 273.285156 Z M 108.082031 273.285156" fill-opacity=".149"/><path fill="#FFF" d="M 108 259.273438 L 108 263.40625 L 88.242188 280.085938 L 88.164062 280.167969 L 20.632812 280.167969 C 19.824219 280.167969 19.175781 279.761719 18.691406 279.117188 C 18.449219 278.871094 18.285156 278.46875 18.207031 278.144531 C 18.125 277.820312 18.042969 277.414062 18.042969 277.011719 L 18.042969 270.695312 L 18.125 270.613281 L 27.921875 262.351562 L 35.371094 256.117188 L 105.410156 256.117188 C 105.652344 256.117188 105.8125 256.117188 105.976562 256.199219 C 107.109375 256.519531 108 257.816406 108 259.273438 Z M 108 259.273438" fill-opacity=".098"/><path fill="#FFF" d="M 105.976562 256.199219 L 77.554688 280.085938 L 59.175781 280.085938 L 84.4375 256.035156 L 105.328125 256.035156 C 105.652344 256.117188 105.8125 256.117188 105.976562 256.199219 Z M 105.976562 256.199219" fill-opacity=".149"/><path fill="#FFF" d="M 126.300781 167.925781 C 124.761719 170.515625 120.953125 171.164062 120.953125 171.164062 C 120.953125 171.164062 98.609375 202.101562 85.652344 202.179688 C 79.417969 202.179688 66.542969 186.148438 66.542969 186.148438 L 85.976562 171.570312 L 90.996094 180.640625 L 115.855469 163.957031 C 115.855469 163.957031 115.207031 157.15625 117.796875 157.480469 C 120.226562 157.800781 119.253906 160.3125 119.09375 160.636719 C 119.578125 160.070312 126.785156 151.324219 129.050781 153.023438 C 131.398438 154.804688 123.625 162.015625 123.625 162.015625 C 123.625 162.015625 127.835938 165.335938 126.300781 167.925781 Z M 126.300781 167.925781"/><path fill="#060405" d="M 85.570312 202.585938 C 79.175781 202.585938 66.707031 187.039062 66.140625 186.390625 L 65.894531 186.066406 L 86.058594 171.003906 L 91.160156 180.074219 L 115.449219 163.796875 C 115.367188 162.742188 115.207031 158.9375 116.5 157.640625 C 116.90625 157.316406 117.3125 157.15625 117.878906 157.15625 C 119.171875 157.316406 119.820312 158.125 119.820312 159.261719 C 122.898438 155.777344 127.351562 151.324219 129.292969 152.78125 C 129.617188 153.023438 129.863281 153.429688 129.863281 153.914062 C 130.023438 156.265625 125.570312 160.71875 124.195312 162.09375 C 125.246094 162.984375 128 165.65625 126.542969 168.085938 C 125.085938 170.515625 121.84375 171.328125 121.117188 171.488281 C 119.335938 174 98.363281 202.503906 85.570312 202.585938 C 85.652344 202.585938 85.652344 202.585938 85.570312 202.585938 Z M 67.109375 186.226562 C 68.972656 188.496094 80.148438 201.777344 85.652344 201.777344 C 98.285156 201.695312 120.386719 171.246094 120.632812 170.921875 L 120.710938 170.761719 L 120.875 170.761719 C 120.875 170.761719 124.519531 170.113281 125.976562 167.683594 C 127.351562 165.414062 123.546875 162.5 123.464844 162.5 L 123.058594 162.175781 L 123.382812 161.851562 C 125.003906 160.3125 129.214844 155.941406 129.132812 153.996094 C 129.132812 153.753906 129.050781 153.589844 128.890625 153.429688 C 127.757812 152.621094 123.871094 155.617188 119.496094 160.878906 L 117.796875 162.90625 L 118.769531 160.554688 C 119.011719 159.988281 119.171875 159.097656 118.851562 158.53125 C 118.6875 158.207031 118.28125 158.046875 117.714844 157.964844 C 117.472656 157.964844 117.230469 157.964844 117.070312 158.207031 C 116.015625 159.179688 116.179688 162.742188 116.257812 163.957031 L 116.257812 164.199219 L 90.835938 181.289062 L 85.8125 172.21875 Z M 67.109375 186.226562"/><path fill="#B580D8" d="M 79.011719 158.53125 C 79.824219 158.855469 89.296875 169.464844 90.429688 178.292969 C 91.078125 179.992188 75.207031 186.308594 74.558594 184.609375 L 70.996094 172.945312 Z M 79.011719 158.53125"/><path fill="#6193F6" d="M 131.398438 302.035156 L 131.398438 299.199219 L 115.449219 299.199219 C 115.207031 304.300781 114.800781 314.261719 114.71875 314.261719 L 140.628906 314.261719 C 141.519531 305.757812 131.398438 302.035156 131.398438 302.035156 Z M 131.398438 302.035156"/><path fill="#060405" d="M 140.226562 310.539062 C 140.550781 311.671875 140.710938 312.886719 140.550781 314.261719 L 114.640625 314.261719 C 114.71875 314.261719 114.800781 312.722656 114.882812 310.539062 Z M 140.226562 310.539062"/><path fill="#060405" d="M 132.453125 299.28125 C 129.132812 279.601562 120.46875 233.601562 114.640625 230.363281 C 102.980469 223.722656 64.761719 229.714844 64.761719 229.714844 L 54.074219 243.808594 L 69.457031 256.117188 L 100.875 256.117188 L 114.558594 299.28125 C 114.558594 302.035156 132.453125 302.035156 132.453125 299.28125 Z M 132.453125 299.28125"/><path fill="#B580D8" d="M 82.574219 230.28125 C 81.765625 226.71875 79.578125 202.585938 79.335938 197.96875 C 78.933594 188.980469 83.546875 170.355469 81.039062 162.015625 C 79.578125 157.316406 71.96875 152.621094 67.351562 150.839844 C 63.710938 149.378906 53.507812 147.761719 48.8125 148.488281 C 44.277344 149.21875 35.855469 152.621094 32.132812 156.589844 C 26.058594 167.035156 30.675781 211.25 34.480469 230.363281 L 82.574219 230.363281 Z M 82.574219 230.28125"/><path fill="#060405" d="M 78.851562 199.105469 L 69.054688 200.644531 C 67.757812 200.804688 66.707031 199.753906 66.867188 198.457031 L 71.484375 178.046875 C 71.644531 177.238281 72.210938 176.589844 73.019531 176.511719 L 82.820312 174.972656 C 84.113281 174.808594 85.167969 175.863281 85.003906 177.15625 L 80.390625 197.566406 C 80.308594 198.375 79.660156 199.023438 78.851562 199.105469 Z M 78.851562 199.105469"/><path fill="#FFF" d="M 62.820312 201.128906 C 62.820312 201.128906 22.171875 215.21875 16.828125 204.285156 C 14.074219 198.699219 20.308594 182.015625 20.308594 182.015625 L 36.34375 183.3125 L 35.207031 189.144531 L 63.953125 192.867188 C 63.953125 192.867188 67.597656 186.875 68.648438 187.117188 C 69.703125 187.363281 68.8125 189.953125 68.8125 189.953125 C 68.8125 189.953125 76.90625 184.527344 77.230469 191.410156 C 77.554688 198.292969 70.347656 199.265625 62.820312 201.128906 Z M 62.820312 201.128906"/><path fill="#060405" d="M 28.003906 208.902344 C 22.496094 208.902344 18.042969 207.769531 16.503906 204.53125 C 13.75 198.859375 19.742188 182.664062 19.988281 181.9375 L 20.066406 181.613281 L 36.828125 182.988281 L 35.695312 188.820312 L 63.710938 192.464844 C 65.410156 189.628906 67.597656 186.472656 68.730469 186.792969 C 68.972656 186.875 69.214844 187.039062 69.296875 187.28125 C 69.539062 187.765625 69.457031 188.496094 69.378906 189.144531 C 70.835938 188.332031 73.832031 186.957031 75.773438 187.929688 C 76.90625 188.496094 77.472656 189.628906 77.554688 191.410156 C 77.878906 197.890625 71.726562 199.347656 65.167969 200.886719 C 64.4375 201.046875 63.628906 201.210938 62.898438 201.453125 C 61.605469 202.019531 41.523438 208.902344 28.003906 208.902344 Z M 20.632812 182.503906 C 19.824219 184.6875 14.804688 199.183594 17.234375 204.125 C 22.414062 214.570312 62.332031 200.886719 62.738281 200.722656 C 63.546875 200.5625 64.277344 200.320312 65.003906 200.15625 C 71.726562 198.539062 77.070312 197.324219 76.746094 191.492188 C 76.664062 190.035156 76.179688 189.0625 75.371094 188.65625 C 73.183594 187.523438 68.972656 190.359375 68.890625 190.359375 L 67.921875 191.003906 L 68.324219 189.871094 C 68.566406 189.222656 68.8125 188.089844 68.566406 187.683594 C 68.566406 187.605469 68.488281 187.605469 68.488281 187.605469 C 67.921875 187.683594 65.894531 190.519531 64.277344 193.113281 L 64.113281 193.355469 L 34.722656 189.546875 L 35.855469 183.71875 Z M 20.632812 182.503906"/><path fill="#B580D8" d="M 33.914062 155.375 C 33.914062 155.375 40.148438 157.964844 40.308594 167.195312 C 40.390625 176.832031 37.71875 186.550781 37.71875 186.550781 C 36.667969 188.253906 17.636719 185.5 17.882812 183.796875 C 17.882812 183.472656 22.738281 163.308594 33.914062 155.375 Z M 33.914062 155.375"/><path fill="#060405" d="M 34.640625 187.441406 C 29.945312 187.441406 21.769531 186.066406 19.097656 185.09375 C 18.285156 184.769531 17.394531 184.363281 17.476562 183.71875 L 18.285156 183.796875 C 18.285156 183.71875 18.285156 183.71875 18.285156 183.71875 C 18.691406 184.445312 24.925781 185.902344 31.320312 186.472656 C 35.53125 186.875 37.070312 186.550781 37.394531 186.308594 C 37.636719 185.335938 40.066406 176.1875 39.984375 167.195312 L 40.796875 167.195312 C 40.875 176.753906 38.203125 186.550781 38.203125 186.632812 L 38.125 186.714844 C 37.71875 187.199219 36.421875 187.441406 34.640625 187.441406 Z M 34.640625 187.441406"/><path fill="#6193F6" d="M 103.628906 302.035156 L 103.628906 299.199219 L 87.675781 299.199219 C 87.433594 304.300781 87.027344 314.261719 86.949219 314.261719 L 112.859375 314.261719 C 113.75 305.757812 103.628906 302.035156 103.628906 302.035156 Z M 103.628906 302.035156"/><path fill="#060405" d="M 112.535156 310.539062 C 112.859375 311.671875 113.019531 312.886719 112.859375 314.261719 L 86.949219 314.261719 C 87.027344 314.261719 87.109375 312.722656 87.191406 310.539062 Z M 112.535156 310.539062"/><path fill="#060405" d="M 34.5625 230.28125 C 34.238281 230.6875 35.695312 238.949219 37.636719 245.992188 C 39.257812 251.90625 44.601562 256.035156 50.753906 256.035156 L 70.429688 256.035156 L 86.625 301.0625 C 86.867188 302.519531 105.003906 300.820312 104.761719 299.363281 C 104.761719 299.363281 94.152344 234.574219 90.105469 231.011719 C 78.609375 220.808594 34.5625 230.28125 34.5625 230.28125 Z M 34.5625 230.28125"/><path fill="#060405" d="M 80.625 183.046875 L 81.910156 170.726562 L 82.714844 170.808594 L 81.433594 183.132812 Z M 80.625 183.046875"/><path fill="#060405" d="M 77.878906 113.667969 C 77.71875 114.070312 86.058594 154.320312 79.335938 153.1875 C 72.050781 152.054688 59.011719 147.679688 58.769531 145.734375 C 58.527344 143.710938 66.707031 118.039062 66.707031 118.039062 L 71.160156 110.671875 Z M 77.878906 113.667969"/><path fill="#FFF" d="M 66.140625 139.015625 C 66.140625 139.015625 63.144531 146.140625 63.871094 147.355469 C 64.601562 148.570312 77.070312 159.097656 69.945312 160.960938 C 62.820312 162.824219 51.242188 147.921875 51.242188 147.921875 C 51.242188 147.921875 56.179688 136.910156 57.152344 133.75 C 58.121094 130.511719 66.140625 139.015625 66.140625 139.015625 Z M 66.140625 139.015625"/><path fill="#060405" d="M 68.648438 161.527344 C 61.363281 161.527344 51.402344 148.734375 50.917969 148.164062 L 50.753906 148.003906 L 50.835938 147.761719 C 50.917969 147.679688 55.773438 136.746094 56.746094 133.589844 C 56.988281 132.941406 57.394531 132.699219 57.71875 132.617188 C 59.902344 132.132812 65.003906 137.234375 66.625 138.851562 C 66.625 138.933594 63.628906 146.058594 64.277344 147.113281 C 64.359375 147.273438 65.003906 147.921875 65.652344 148.570312 C 68.324219 151.242188 73.34375 156.34375 72.535156 159.339844 C 72.292969 160.3125 71.484375 160.960938 70.105469 161.367188 C 69.621094 161.527344 69.132812 161.527344 68.648438 161.527344 Z M 51.726562 147.921875 C 53.101562 149.625 63.546875 162.335938 69.863281 160.636719 C 70.917969 160.394531 71.484375 159.910156 71.726562 159.179688 C 72.453125 156.589844 67.433594 151.566406 65.085938 149.136719 C 64.195312 148.246094 63.789062 147.761719 63.628906 147.519531 C 62.898438 146.304688 64.925781 141.039062 65.734375 139.015625 C 63.386719 136.585938 59.335938 133.023438 57.960938 133.34375 C 57.800781 133.34375 57.636719 133.425781 57.554688 133.75 C 56.664062 136.828125 52.453125 146.304688 51.726562 147.921875 Z M 51.726562 147.921875"/><path fill="#FFF" d="M 69.457031 142.253906 C 63.304688 146.625 53.183594 136.421875 53.183594 136.421875 L 53.914062 111.640625 L 62.496094 105.164062 C 62.496094 105.164062 72.375 108.890625 74.722656 115.042969 C 76.90625 121.199219 73.425781 139.417969 69.457031 142.253906 Z M 69.457031 142.253906"/><path fill="#060405" d="M 65.894531 143.792969 C 59.984375 143.792969 53.265625 137.070312 52.859375 136.746094 L 52.699219 136.585938 L 53.425781 111.398438 L 62.332031 104.675781 L 62.578125 104.757812 C 62.980469 104.921875 72.699219 108.644531 75.046875 114.882812 C 77.394531 121.199219 73.910156 139.582031 69.78125 142.578125 C 68.488281 143.386719 67.191406 143.792969 65.894531 143.792969 Z M 53.589844 136.261719 C 54.722656 137.394531 63.789062 145.816406 69.214844 141.929688 C 73.101562 139.175781 76.421875 121.199219 74.234375 115.207031 C 72.210938 109.78125 63.871094 106.214844 62.496094 105.648438 L 54.316406 111.886719 Z M 53.589844 136.261719"/><path fill="#060405" d="M 41.121094 153.023438 C 41.121094 153.023438 53.023438 158.449219 56.585938 154.480469 C 60.148438 150.515625 54.480469 115.933594 58.367188 116.015625 C 62.253906 116.097656 79.984375 119.496094 79.5 114.070312 C 79.011719 108.644531 79.335938 105.730469 72.941406 102.167969 C 66.542969 98.605469 56.179688 104.675781 54.804688 104.839844 C 53.425781 104.921875 45.734375 106.214844 43.546875 112.453125 C 41.441406 118.6875 36.910156 148.734375 41.121094 153.023438 Z M 41.121094 153.023438"/><path fill="#060405" d="M 63.710938 121.671875 C 63.714844 121.875 63.691406 122.070312 63.640625 122.261719 C 63.589844 122.449219 63.515625 122.617188 63.417969 122.765625 C 63.324219 122.910156 63.210938 123.023438 63.082031 123.101562 C 62.957031 123.183594 62.820312 123.222656 62.683594 123.226562 C 62.542969 123.230469 62.40625 123.191406 62.277344 123.117188 C 62.148438 123.039062 62.03125 122.929688 61.929688 122.789062 C 61.832031 122.644531 61.75 122.480469 61.695312 122.292969 C 61.640625 122.105469 61.609375 121.910156 61.605469 121.703125 C 61.601562 121.5 61.625 121.304688 61.675781 121.113281 C 61.726562 120.925781 61.800781 120.757812 61.898438 120.613281 C 61.992188 120.464844 62.105469 120.351562 62.234375 120.273438 C 62.359375 120.191406 62.496094 120.152344 62.632812 120.148438 C 62.773438 120.148438 62.910156 120.183594 63.039062 120.261719 C 63.167969 120.335938 63.285156 120.445312 63.386719 120.589844 C 63.484375 120.730469 63.566406 120.894531 63.621094 121.085938 C 63.675781 121.273438 63.707031 121.46875 63.710938 121.671875 Z M 63.710938 121.671875"/><path fill="#060405" d="M 72.78125 122.886719 C 72.78125 123.089844 72.757812 123.285156 72.707031 123.476562 C 72.660156 123.664062 72.585938 123.832031 72.488281 123.980469 C 72.390625 124.125 72.28125 124.238281 72.152344 124.316406 C 72.023438 124.398438 71.890625 124.4375 71.75 124.441406 C 71.613281 124.441406 71.476562 124.40625 71.347656 124.332031 C 71.214844 124.253906 71.101562 124.144531 71 124.003906 C 70.898438 123.859375 70.820312 123.695312 70.765625 123.507812 C 70.707031 123.320312 70.679688 123.121094 70.675781 122.917969 C 70.671875 122.714844 70.695312 122.519531 70.746094 122.328125 C 70.796875 122.140625 70.871094 121.972656 70.964844 121.828125 C 71.0625 121.679688 71.175781 121.566406 71.300781 121.488281 C 71.429688 121.40625 71.5625 121.367188 71.703125 121.363281 C 71.84375 121.363281 71.976562 121.398438 72.109375 121.472656 C 72.238281 121.550781 72.351562 121.660156 72.453125 121.800781 C 72.554688 121.945312 72.632812 122.109375 72.691406 122.296875 C 72.746094 122.484375 72.777344 122.683594 72.78125 122.886719 Z M 72.78125 122.886719"/><path fill="#060405" d="M 67.109375 128.566406 C 66.867188 128.40625 66.625 128.164062 66.542969 128 C 66.382812 127.839844 66.460938 127.597656 66.625 127.433594 C 66.785156 127.273438 67.03125 127.351562 67.191406 127.515625 C 67.273438 127.675781 67.433594 127.839844 67.597656 127.917969 C 67.921875 128.082031 67.839844 127.675781 67.757812 127.351562 C 67.433594 125.894531 67.351562 124.355469 67.675781 122.898438 C 67.757812 122.65625 67.921875 122.574219 68.164062 122.574219 C 68.40625 122.65625 68.488281 122.816406 68.488281 123.0625 C 68.242188 124.4375 68.242188 125.8125 68.566406 127.191406 C 68.648438 127.515625 68.8125 128.242188 68.242188 128.648438 C 67.921875 128.8125 67.433594 128.730469 67.109375 128.566406 Z M 67.109375 128.566406"/><path fill="#060405" d="M 62.089844 135.046875 C 61.929688 134.882812 61.929688 134.640625 62.171875 134.480469 C 62.332031 134.316406 62.578125 134.316406 62.738281 134.558594 C 63.546875 135.53125 65.652344 136.019531 67.273438 135.53125 C 67.515625 135.453125 67.675781 135.613281 67.757812 135.773438 C 67.839844 135.9375 67.675781 136.179688 67.515625 136.261719 C 65.652344 136.828125 63.144531 136.261719 62.089844 135.046875 Z M 62.089844 135.046875"/><path fill="#EFC102" d="M 380.378906 149.21875 C 380.378906 150.105469 380.335938 150.988281 380.25 151.871094 C 380.164062 152.75 380.035156 153.625 379.859375 154.496094 C 379.6875 155.363281 379.472656 156.222656 379.214844 157.070312 C 378.957031 157.917969 378.660156 158.75 378.320312 159.570312 C 377.984375 160.386719 377.605469 161.1875 377.1875 161.96875 C 376.769531 162.75 376.316406 163.507812 375.824219 164.246094 C 375.332031 164.980469 374.804688 165.691406 374.242188 166.378906 C 373.679688 167.0625 373.085938 167.71875 372.460938 168.34375 C 371.832031 168.972656 371.175781 169.566406 370.492188 170.128906 C 369.808594 170.6875 369.097656 171.214844 368.359375 171.707031 C 367.625 172.199219 366.867188 172.65625 366.085938 173.074219 C 365.304688 173.492188 364.503906 173.867188 363.6875 174.207031 C 362.867188 174.546875 362.035156 174.84375 361.1875 175.101562 C 360.339844 175.359375 359.480469 175.574219 358.613281 175.746094 C 357.742188 175.921875 356.867188 176.050781 355.988281 176.136719 C 355.105469 176.222656 354.222656 176.265625 353.335938 176.265625 C 352.449219 176.265625 351.566406 176.222656 350.6875 176.136719 C 349.804688 176.050781 348.929688 175.921875 348.058594 175.746094 C 347.191406 175.574219 346.332031 175.359375 345.484375 175.101562 C 344.636719 174.84375 343.804688 174.546875 342.988281 174.207031 C 342.167969 173.867188 341.371094 173.492188 340.589844 173.074219 C 339.808594 172.65625 339.046875 172.199219 338.3125 171.707031 C 337.574219 171.214844 336.863281 170.6875 336.179688 170.128906 C 335.496094 169.566406 334.839844 168.972656 334.214844 168.34375 C 333.585938 167.71875 332.992188 167.0625 332.429688 166.378906 C 331.871094 165.691406 331.34375 164.980469 330.851562 164.246094 C 330.359375 163.507812 329.902344 162.75 329.484375 161.96875 C 329.070312 161.1875 328.691406 160.386719 328.351562 159.570312 C 328.011719 158.75 327.714844 157.917969 327.457031 157.070312 C 327.199219 156.222656 326.984375 155.363281 326.8125 154.496094 C 326.640625 153.625 326.511719 152.75 326.421875 151.871094 C 326.335938 150.988281 326.292969 150.105469 326.292969 149.21875 C 326.292969 148.332031 326.335938 147.449219 326.421875 146.566406 C 326.511719 145.6875 326.640625 144.808594 326.8125 143.941406 C 326.984375 143.074219 327.199219 142.214844 327.457031 141.367188 C 327.714844 140.519531 328.011719 139.6875 328.351562 138.867188 C 328.691406 138.050781 329.070312 137.25 329.484375 136.46875 C 329.902344 135.6875 330.359375 134.925781 330.851562 134.191406 C 331.34375 133.453125 331.871094 132.742188 332.429688 132.058594 C 332.992188 131.375 333.585938 130.71875 334.214844 130.09375 C 334.839844 129.464844 335.496094 128.871094 336.179688 128.308594 C 336.863281 127.746094 337.574219 127.21875 338.3125 126.726562 C 339.046875 126.234375 339.808594 125.78125 340.589844 125.363281 C 341.371094 124.945312 342.167969 124.566406 342.988281 124.230469 C 343.804688 123.890625 344.636719 123.59375 345.484375 123.335938 C 346.332031 123.078125 347.191406 122.863281 348.058594 122.691406 C 348.929688 122.515625 349.804688 122.386719 350.6875 122.300781 C 351.566406 122.214844 352.449219 122.171875 353.335938 122.171875 C 354.222656 122.171875 355.105469 122.214844 355.988281 122.300781 C 356.867188 122.386719 357.742188 122.515625 358.613281 122.691406 C 359.480469 122.863281 360.339844 123.078125 361.1875 123.335938 C 362.035156 123.59375 362.867188 123.890625 363.6875 124.230469 C 364.503906 124.566406 365.304688 124.945312 366.085938 125.363281 C 366.867188 125.78125 367.625 126.234375 368.359375 126.726562 C 369.097656 127.21875 369.808594 127.746094 370.492188 128.308594 C 371.175781 128.871094 371.832031 129.464844 372.460938 130.09375 C 373.085938 130.71875 373.679688 131.375 374.242188 132.058594 C 374.804688 132.742188 375.332031 133.453125 375.824219 134.191406 C 376.316406 134.925781 376.769531 135.6875 377.1875 136.46875 C 377.605469 137.25 377.984375 138.050781 378.320312 138.867188 C 378.660156 139.6875 378.957031 140.519531 379.214844 141.367188 C 379.472656 142.214844 379.6875 143.074219 379.859375 143.941406 C 380.035156 144.808594 380.164062 145.6875 380.25 146.566406 C 380.335938 147.449219 380.378906 148.332031 380.378906 149.21875 Z M 380.378906 149.21875"/><path fill="#EFC102" d="M 373.742188 149.21875 C 373.742188 149.886719 373.707031 150.554688 373.640625 151.21875 C 373.578125 151.882812 373.480469 152.542969 373.347656 153.199219 C 373.21875 153.855469 373.054688 154.503906 372.863281 155.140625 C 372.667969 155.78125 372.441406 156.410156 372.1875 157.027344 C 371.933594 157.644531 371.644531 158.25 371.332031 158.839844 C 371.015625 159.429688 370.671875 160 370.300781 160.554688 C 369.929688 161.113281 369.53125 161.648438 369.109375 162.164062 C 368.683594 162.679688 368.238281 163.175781 367.765625 163.648438 C 367.292969 164.121094 366.796875 164.570312 366.28125 164.992188 C 365.765625 165.417969 365.226562 165.816406 364.671875 166.1875 C 364.117188 166.558594 363.542969 166.902344 362.953125 167.214844 C 362.367188 167.53125 361.761719 167.816406 361.144531 168.074219 C 360.527344 168.328125 359.898438 168.554688 359.257812 168.746094 C 358.621094 168.941406 357.972656 169.105469 357.316406 169.234375 C 356.660156 169.363281 356 169.460938 355.335938 169.527344 C 354.671875 169.59375 354.003906 169.625 353.335938 169.625 C 352.667969 169.625 352 169.59375 351.335938 169.527344 C 350.671875 169.460938 350.011719 169.363281 349.355469 169.234375 C 348.699219 169.105469 348.054688 168.941406 347.414062 168.746094 C 346.773438 168.554688 346.144531 168.328125 345.527344 168.074219 C 344.910156 167.816406 344.308594 167.53125 343.71875 167.214844 C 343.128906 166.902344 342.554688 166.558594 342 166.1875 C 341.445312 165.816406 340.910156 165.417969 340.390625 164.992188 C 339.875 164.570312 339.382812 164.121094 338.910156 163.648438 C 338.4375 163.175781 337.988281 162.679688 337.5625 162.164062 C 337.140625 161.648438 336.742188 161.113281 336.371094 160.554688 C 336 160 335.65625 159.429688 335.339844 158.839844 C 335.027344 158.25 334.742188 157.644531 334.484375 157.027344 C 334.230469 156.410156 334.003906 155.78125 333.8125 155.140625 C 333.617188 154.503906 333.453125 153.855469 333.324219 153.199219 C 333.195312 152.542969 333.097656 151.882812 333.03125 151.21875 C 332.964844 150.554688 332.933594 149.886719 332.933594 149.21875 C 332.933594 148.550781 332.964844 147.882812 333.03125 147.21875 C 333.097656 146.554688 333.195312 145.890625 333.324219 145.238281 C 333.453125 144.582031 333.617188 143.933594 333.8125 143.292969 C 334.003906 142.65625 334.230469 142.027344 334.484375 141.410156 C 334.742188 140.792969 335.027344 140.1875 335.339844 139.597656 C 335.65625 139.007812 336 138.4375 336.371094 137.878906 C 336.742188 137.324219 337.140625 136.789062 337.5625 136.273438 C 337.988281 135.753906 338.4375 135.261719 338.910156 134.789062 C 339.382812 134.316406 339.875 133.867188 340.390625 133.441406 C 340.910156 133.019531 341.445312 132.621094 342 132.25 C 342.554688 131.878906 343.128906 131.535156 343.71875 131.21875 C 344.308594 130.90625 344.910156 130.621094 345.527344 130.363281 C 346.144531 130.109375 346.773438 129.882812 347.414062 129.6875 C 348.054688 129.496094 348.699219 129.332031 349.355469 129.203125 C 350.011719 129.074219 350.671875 128.972656 351.335938 128.910156 C 352 128.84375 352.667969 128.8125 353.335938 128.8125 C 354.003906 128.8125 354.671875 128.84375 355.335938 128.910156 C 356 128.972656 356.660156 129.074219 357.316406 129.203125 C 357.972656 129.332031 358.621094 129.496094 359.257812 129.6875 C 359.898438 129.882812 360.527344 130.109375 361.144531 130.363281 C 361.761719 130.621094 362.367188 130.90625 362.953125 131.21875 C 363.542969 131.535156 364.117188 131.878906 364.671875 132.25 C 365.226562 132.621094 365.765625 133.019531 366.28125 133.441406 C 366.796875 133.867188 367.292969 134.316406 367.765625 134.789062 C 368.238281 135.261719 368.683594 135.753906 369.109375 136.273438 C 369.53125 136.789062 369.929688 137.324219 370.300781 137.878906 C 370.671875 138.4375 371.015625 139.007812 371.332031 139.597656 C 371.644531 140.1875 371.933594 140.792969 372.1875 141.410156 C 372.441406 142.027344 372.667969 142.65625 372.863281 143.292969 C 373.054688 143.933594 373.21875 144.582031 373.347656 145.238281 C 373.480469 145.890625 373.578125 146.554688 373.640625 147.21875 C 373.707031 147.882812 373.742188 148.550781 373.742188 149.21875 Z M 373.742188 149.21875"/><path d="M 370.746094 138.527344 C 367.019531 134.640625 361.839844 132.210938 356.007812 132.210938 C 344.753906 132.210938 335.605469 141.363281 335.605469 152.621094 C 335.605469 156.507812 336.738281 160.230469 338.679688 163.308594 C 335.199219 159.664062 333.011719 154.644531 333.011719 149.21875 C 333.011719 137.960938 342.164062 128.8125 353.417969 128.8125 C 360.703125 128.8125 367.101562 132.699219 370.746094 138.527344 Z M 370.746094 138.527344" fill-opacity=".149"/><path fill="#FFF" d="M 359.410156 156.019531 C 358.921875 156.75 358.195312 157.398438 357.304688 157.800781 C 356.414062 158.207031 355.359375 158.53125 354.144531 158.53125 L 354.144531 160.394531 C 354.144531 160.636719 354.066406 160.800781 353.902344 160.960938 C 353.742188 161.121094 353.578125 161.203125 353.335938 161.203125 C 353.09375 161.203125 352.933594 161.121094 352.769531 160.960938 C 352.609375 160.800781 352.527344 160.636719 352.527344 160.394531 L 352.527344 158.53125 C 350.664062 158.371094 348.882812 157.964844 347.265625 157.316406 C 347.019531 157.234375 346.859375 157.074219 346.777344 156.910156 C 346.617188 156.75 346.535156 156.507812 346.535156 156.265625 C 346.535156 155.941406 346.617188 155.695312 346.859375 155.535156 C 347.019531 155.292969 347.34375 155.210938 347.585938 155.210938 C 347.75 155.210938 347.910156 155.210938 348.074219 155.292969 C 349.449219 155.941406 350.988281 156.265625 352.527344 156.34375 L 352.527344 150.351562 C 351.3125 150.027344 350.339844 149.703125 349.53125 149.300781 C 348.722656 148.894531 348.074219 148.410156 347.507812 147.761719 C 346.941406 147.113281 346.695312 146.222656 346.695312 145.25 C 346.695312 144.359375 346.941406 143.550781 347.34375 142.738281 C 347.75 142.011719 348.476562 141.363281 349.289062 140.878906 C 350.179688 140.390625 351.230469 140.066406 352.445312 139.984375 L 352.445312 138.125 C 352.445312 137.878906 352.527344 137.71875 352.6875 137.558594 C 352.851562 137.394531 353.011719 137.3125 353.253906 137.3125 C 353.5 137.3125 353.660156 137.394531 353.824219 137.558594 C 353.984375 137.71875 354.066406 137.878906 354.066406 138.125 L 354.066406 139.90625 C 355.765625 139.984375 357.304688 140.230469 358.597656 140.796875 C 359.085938 140.957031 359.328125 141.28125 359.328125 141.847656 C 359.328125 142.09375 359.246094 142.414062 359.003906 142.578125 C 358.84375 142.820312 358.597656 142.902344 358.277344 142.902344 C 358.195312 142.902344 358.03125 142.902344 357.871094 142.820312 C 356.65625 142.414062 355.441406 142.171875 354.066406 142.09375 L 354.066406 148.328125 C 355.28125 148.652344 356.332031 148.976562 357.140625 149.300781 C 357.953125 149.625 358.679688 150.191406 359.246094 150.839844 C 359.8125 151.484375 360.058594 152.457031 360.058594 153.589844 C 360.136719 154.402344 359.894531 155.210938 359.410156 156.019531 Z M 349.9375 146.789062 C 350.503906 147.195312 351.394531 147.597656 352.527344 147.839844 L 352.527344 142.09375 C 351.472656 142.253906 350.664062 142.578125 350.015625 143.0625 C 349.367188 143.550781 349.046875 144.199219 349.046875 145.007812 C 349.125 145.816406 349.367188 146.382812 349.9375 146.789062 Z M 357.789062 153.347656 C 357.789062 152.699219 357.464844 152.132812 356.898438 151.808594 C 356.25 151.40625 355.359375 151.082031 354.144531 150.757812 L 354.144531 156.34375 C 356.574219 156.101562 357.789062 155.128906 357.789062 153.347656 Z M 357.789062 153.347656"/><path fill="#BDD6FF" d="M 371.554688 72.6875 L 391.230469 31.226562 L 363.214844 43.777344 L 366.695312 51.550781 L 378.761719 43.453125 L 368.558594 58.597656 Z M 371.554688 72.6875"/><path fill="#060405" d="M 366.695312 51.550781 L 372.445312 52.929688 L 378.761719 43.453125 Z M 366.695312 51.550781"/></svg>